<svg xmlns="http://www.w3.org/2000/svg" xmlns:xlink="http://www.w3.org/1999/xlink" width="500" zoomAndPan="magnify" viewBox="0 0 375 374.999991" height="500" preserveAspectRatio="xMidYMid meet" version="1.0"><path fill="#fefefe" d="M 109.527344 183.265625 C 110.785156 180.644531 111.542969 177.722656 111.542969 174.597656 C 111.542969 163.304688 102.367188 154.132812 91.078125 154.132812 L 78.125 154.132812 C 73.941406 154.132812 70.566406 157.511719 70.566406 161.695312 L 70.566406 213.355469 C 70.566406 217.539062 73.941406 220.917969 78.125 220.917969 L 98.4375 220.917969 C 109.726562 220.917969 118.902344 211.742188 118.902344 200.453125 C 118.902344 193.195312 115.121094 186.894531 109.527344 183.265625 Z M 85.683594 169.253906 L 91.027344 169.253906 C 94.003906 169.253906 96.371094 171.671875 96.371094 174.597656 C 96.371094 177.519531 93.953125 179.941406 91.027344 179.941406 L 85.683594 179.941406 Z M 98.386719 205.796875 L 85.683594 205.796875 L 85.683594 195.058594 L 98.386719 195.058594 C 101.359375 195.058594 103.730469 197.480469 103.730469 200.402344 C 103.730469 203.328125 101.359375 205.796875 98.386719 205.796875 Z M 98.386719 205.796875 " fill-opacity="1" fill-rule="nonzero"/><path fill="#fefefe" d="M 159.527344 205.796875 L 140.324219 205.796875 L 140.324219 161.695312 C 140.324219 157.511719 136.945312 154.132812 132.761719 154.132812 C 128.578125 154.132812 125.203125 157.511719 125.203125 161.695312 L 125.203125 213.355469 C 125.203125 217.539062 128.578125 220.917969 132.761719 220.917969 L 159.527344 220.917969 C 163.710938 220.917969 167.085938 217.539062 167.085938 213.355469 C 167.085938 209.171875 163.710938 205.796875 159.527344 205.796875 Z M 159.527344 205.796875 " fill-opacity="1" fill-rule="nonzero"/><path fill="#fefefe" d="M 197.480469 154.132812 C 179.082031 154.132812 164.0625 169.101562 164.0625 187.550781 C 164.0625 205.996094 179.03125 220.96875 197.480469 220.96875 C 215.925781 220.96875 230.898438 205.996094 230.898438 187.550781 C 230.898438 169.101562 215.925781 154.132812 197.480469 154.132812 Z M 197.480469 205.796875 C 187.398438 205.796875 179.183594 197.582031 179.183594 187.5 C 179.183594 177.417969 187.398438 169.203125 197.480469 169.203125 C 207.558594 169.203125 215.777344 177.417969 215.777344 187.5 C 215.777344 197.582031 207.558594 205.796875 197.480469 205.796875 Z M 197.480469 205.796875 " fill-opacity="1" fill-rule="nonzero"/><path fill="#fefefe" d="M 296.875 179.941406 L 279.890625 179.941406 C 275.707031 179.941406 272.328125 183.316406 272.328125 187.5 C 272.328125 191.683594 275.707031 195.058594 279.890625 195.058594 L 287.601562 195.058594 C 284.726562 201.359375 278.375 205.796875 271.019531 205.796875 C 260.9375 205.796875 252.722656 197.582031 252.722656 187.5 C 252.722656 177.417969 260.9375 169.203125 271.019531 169.203125 C 275.203125 169.203125 278.578125 165.828125 278.578125 161.644531 C 278.578125 157.460938 275.203125 154.082031 271.019531 154.082031 C 252.621094 154.082031 237.601562 169.050781 237.601562 187.5 C 237.601562 205.949219 252.570312 220.917969 271.019531 220.917969 C 289.464844 220.917969 304.433594 205.898438 304.433594 187.5 C 304.433594 183.316406 301.058594 179.941406 296.875 179.941406 Z M 296.875 179.941406 " fill-opacity="1" fill-rule="nonzero"/><path fill="#fefefe" d="M 22.730469 374.898438 L 352.269531 374.898438 C 364.71875 374.898438 374.898438 364.769531 374.898438 352.269531 L 374.898438 22.730469 C 374.898438 10.28125 364.769531 0.101562 352.269531 0.101562 L 22.730469 0.101562 C 10.28125 0.101562 0.101562 10.230469 0.101562 22.730469 L 0.101562 352.269531 C 0.101562 364.71875 10.28125 374.898438 22.730469 374.898438 Z M 352.269531 359.777344 L 22.730469 359.777344 C 18.597656 359.777344 15.222656 356.402344 15.222656 352.269531 L 15.222656 81.652344 L 359.726562 81.652344 L 359.726562 352.269531 C 359.777344 356.402344 356.402344 359.777344 352.269531 359.777344 Z M 22.730469 15.222656 L 352.269531 15.222656 C 356.402344 15.222656 359.777344 18.597656 359.777344 22.730469 L 359.777344 66.53125 L 15.222656 66.53125 L 15.222656 22.730469 C 15.222656 18.597656 18.597656 15.222656 22.730469 15.222656 Z M 22.730469 15.222656 " fill-opacity="1" fill-rule="nonzero"/><path fill="#fefefe" d="M 110.636719 48.035156 L 264.363281 48.035156 C 268.546875 48.035156 271.925781 44.65625 271.925781 40.472656 C 271.925781 36.289062 268.546875 32.914062 264.363281 32.914062 L 110.636719 32.914062 C 106.453125 32.914062 103.074219 36.289062 103.074219 40.472656 C 103.074219 44.65625 106.453125 48.035156 110.636719 48.035156 Z M 110.636719 48.035156 " fill-opacity="1" fill-rule="nonzero"/><path fill="#fefefe" d="M 300.554688 48.035156 C 304.738281 48.035156 308.113281 44.65625 308.113281 40.472656 C 308.113281 36.289062 304.738281 32.914062 300.554688 32.914062 L 300.503906 32.914062 C 296.320312 32.914062 292.992188 36.289062 292.992188 40.472656 C 292.992188 44.65625 296.421875 48.035156 300.554688 48.035156 Z M 300.554688 48.035156 " fill-opacity="1" fill-rule="nonzero"/><path fill="#fefefe" d="M 332.207031 48.035156 C 336.390625 48.035156 339.769531 44.65625 339.769531 40.472656 C 339.769531 36.289062 336.390625 32.914062 332.207031 32.914062 L 332.15625 32.914062 C 327.972656 32.914062 324.648438 36.289062 324.648438 40.472656 C 324.648438 44.65625 328.023438 48.035156 332.207031 48.035156 Z M 332.207031 48.035156 " fill-opacity="1" fill-rule="nonzero"/></svg>