<svg xmlns="http://www.w3.org/2000/svg" xmlns:xlink="http://www.w3.org/1999/xlink" width="500" zoomAndPan="magnify" viewBox="0 0 375 374.999991" height="500" preserveAspectRatio="xMidYMid meet" version="1.0"><defs><clipPath id="b2b7e4b57b"><path d="M 21.164062 1.652344 L 354.164062 1.652344 L 354.164062 373.652344 L 21.164062 373.652344 Z M 21.164062 1.652344 " clip-rule="nonzero"/></clipPath></defs><g clip-path="url(#b2b7e4b57b)"><path fill="#0277bd" d="M 354.121094 1.652344 L 21.210938 1.652344 L 50.585938 334.492188 L 187.664062 373.652344 L 324.746094 334.492188 Z M 354.121094 1.652344 " fill-opacity="1" fill-rule="nonzero"/></g><path fill="#039be5" d="M 187.664062 31.019531 L 187.664062 343.304688 L 297.328125 311.976562 L 321.808594 31.019531 Z M 187.664062 31.019531 " fill-opacity="1" fill-rule="nonzero"/><path fill="#ffffff" d="M 276.765625 79.964844 L 187.664062 79.964844 L 187.664062 119.125 L 235.644531 119.125 L 232.707031 158.28125 L 187.664062 158.28125 L 187.664062 197.441406 L 230.746094 197.441406 L 227.808594 241.492188 L 187.664062 255.199219 L 187.664062 296.3125 L 265.015625 270.859375 L 271.871094 158.28125 Z M 276.765625 79.964844 " fill-opacity="1" fill-rule="nonzero"/><path fill="#eeeeee" d="M 187.664062 79.964844 L 187.664062 119.125 L 100.519531 119.125 L 97.582031 79.964844 Z M 142.625 158.28125 L 144.582031 197.441406 L 187.664062 197.441406 L 187.664062 158.28125 Z M 146.539062 217.019531 L 107.375 217.019531 L 110.3125 270.859375 L 187.664062 296.3125 L 187.664062 255.199219 L 147.519531 241.492188 Z M 146.539062 217.019531 " fill-opacity="1" fill-rule="nonzero"/></svg>