<svg xmlns="http://www.w3.org/2000/svg" xmlns:xlink="http://www.w3.org/1999/xlink" width="500" zoomAndPan="magnify" viewBox="0 0 375 374.999991" height="500" preserveAspectRatio="xMidYMid meet" version="1.0"><defs><clipPath id="26fa839f96"><path d="M 53 80 L 322.089844 80 L 322.089844 375 L 53 375 Z M 53 80 " clip-rule="nonzero"/></clipPath></defs><path fill="#ffa000" d="M 230.199219 136.933594 L 192.902344 171.636719 L 158.300781 101.820312 L 176.207031 61.664062 C 180.863281 53.511719 188.128906 53.605469 192.671875 61.664062 Z M 230.199219 136.933594 " fill-opacity="1" fill-rule="nonzero"/><path fill="#f57f17" d="M 158.300781 101.820312 L 192.902344 171.636719 L 53.53125 301.316406 Z M 158.300781 101.820312 " fill-opacity="1" fill-rule="nonzero"/><g clip-path="url(#26fa839f96)"><path fill="#ffca28" d="M 270.984375 83.886719 C 277.644531 77.480469 284.539062 79.671875 286.296875 88.742188 L 322.578125 299.59375 L 202.324219 371.796875 C 198.132812 374.125 186.953125 375.128906 186.953125 375.128906 C 186.953125 375.128906 176.777344 373.917969 172.898438 371.632812 L 53.53125 301.316406 Z M 270.984375 83.886719 " fill-opacity="1" fill-rule="nonzero"/></g><path fill="#ffa000" d="M 158.300781 101.820312 L 53.542969 301.316406 L 100.199219 9.757812 C 101.921875 0.675781 107.089844 -0.199219 111.703125 7.8125 Z M 158.300781 101.820312 " fill-opacity="1" fill-rule="nonzero"/></svg>