<svg xmlns="http://www.w3.org/2000/svg" xmlns:xlink="http://www.w3.org/1999/xlink" width="500" zoomAndPan="magnify" viewBox="0 0 375 374.999991" height="500" preserveAspectRatio="xMidYMid meet" version="1.0"><path fill="#fefefe" d="M 297.445312 190.695312 C 297.445312 191.890625 297.386719 193.082031 297.269531 194.269531 C 297.152344 195.460938 296.976562 196.640625 296.742188 197.8125 C 296.511719 198.984375 296.222656 200.144531 295.875 201.289062 C 295.527344 202.429688 295.125 203.554688 294.667969 204.660156 C 294.210938 205.765625 293.699219 206.84375 293.136719 207.898438 C 292.574219 208.953125 291.957031 209.976562 291.292969 210.96875 C 290.628906 211.964844 289.917969 212.921875 289.160156 213.847656 C 288.402344 214.769531 287.601562 215.65625 286.753906 216.5 C 285.910156 217.34375 285.027344 218.148438 284.101562 218.90625 C 283.179688 219.664062 282.21875 220.375 281.226562 221.039062 C 280.230469 221.703125 279.207031 222.316406 278.152344 222.878906 C 277.097656 223.445312 276.019531 223.953125 274.914062 224.410156 C 273.8125 224.867188 272.6875 225.269531 271.542969 225.617188 C 270.398438 225.964844 269.242188 226.253906 268.070312 226.488281 C 266.898438 226.722656 265.714844 226.898438 264.527344 227.015625 C 263.335938 227.132812 262.144531 227.191406 260.949219 227.191406 C 259.753906 227.191406 258.5625 227.132812 257.371094 227.015625 C 256.183594 226.898438 255 226.722656 253.828125 226.488281 C 252.65625 226.253906 251.5 225.964844 250.355469 225.617188 C 249.210938 225.269531 248.085938 224.867188 246.980469 224.410156 C 245.878906 223.953125 244.796875 223.445312 243.746094 222.878906 C 242.691406 222.316406 241.667969 221.703125 240.671875 221.039062 C 239.679688 220.375 238.71875 219.664062 237.796875 218.90625 C 236.871094 218.148438 235.988281 217.34375 235.140625 216.5 C 234.296875 215.65625 233.496094 214.769531 232.738281 213.847656 C 231.980469 212.921875 231.265625 211.964844 230.601562 210.96875 C 229.9375 209.976562 229.324219 208.953125 228.761719 207.898438 C 228.199219 206.84375 227.6875 205.765625 227.230469 204.660156 C 226.773438 203.554688 226.371094 202.429688 226.023438 201.289062 C 225.675781 200.144531 225.386719 198.984375 225.152344 197.8125 C 224.921875 196.640625 224.746094 195.460938 224.628906 194.269531 C 224.511719 193.082031 224.453125 191.890625 224.453125 190.695312 C 224.453125 189.5 224.511719 188.304688 224.628906 187.117188 C 224.746094 185.925781 224.921875 184.746094 225.152344 183.574219 C 225.386719 182.402344 225.675781 181.242188 226.023438 180.097656 C 226.371094 178.957031 226.773438 177.832031 227.230469 176.726562 C 227.6875 175.621094 228.199219 174.542969 228.761719 173.488281 C 229.324219 172.433594 229.9375 171.410156 230.601562 170.417969 C 231.265625 169.421875 231.980469 168.464844 232.738281 167.539062 C 233.496094 166.617188 234.296875 165.730469 235.140625 164.886719 C 235.988281 164.042969 236.871094 163.238281 237.796875 162.480469 C 238.71875 161.722656 239.679688 161.011719 240.671875 160.347656 C 241.667969 159.683594 242.691406 159.070312 243.746094 158.507812 C 244.796875 157.941406 245.878906 157.433594 246.980469 156.976562 C 248.085938 156.519531 249.210938 156.117188 250.355469 155.769531 C 251.5 155.421875 252.65625 155.132812 253.828125 154.898438 C 255 154.664062 256.183594 154.488281 257.371094 154.371094 C 258.5625 154.253906 259.753906 154.195312 260.949219 154.195312 C 262.144531 154.195312 263.335938 154.253906 264.527344 154.371094 C 265.714844 154.488281 266.898438 154.664062 268.070312 154.898438 C 269.242188 155.132812 270.398438 155.421875 271.542969 155.769531 C 272.6875 156.117188 273.8125 156.519531 274.914062 156.976562 C 276.019531 157.433594 277.097656 157.941406 278.152344 158.507812 C 279.207031 159.070312 280.230469 159.683594 281.226562 160.347656 C 282.21875 161.011719 283.179688 161.722656 284.101562 162.480469 C 285.027344 163.238281 285.910156 164.042969 286.753906 164.886719 C 287.601562 165.730469 288.402344 166.617188 289.160156 167.539062 C 289.917969 168.464844 290.628906 169.421875 291.292969 170.417969 C 291.957031 171.410156 292.574219 172.433594 293.136719 173.488281 C 293.699219 174.542969 294.210938 175.621094 294.667969 176.726562 C 295.125 177.832031 295.527344 178.957031 295.875 180.097656 C 296.222656 181.242188 296.511719 182.402344 296.742188 183.574219 C 296.976562 184.746094 297.152344 185.925781 297.269531 187.117188 C 297.386719 188.304688 297.445312 189.5 297.445312 190.695312 Z M 297.445312 190.695312 " fill-opacity="1" fill-rule="nonzero"/><path fill="#fefefe" d="M 224.453125 117.699219 C 224.453125 118.894531 224.394531 120.089844 224.277344 121.277344 C 224.160156 122.46875 223.984375 123.648438 223.75 124.820312 C 223.519531 125.992188 223.226562 127.152344 222.882812 128.296875 C 222.535156 129.4375 222.132812 130.5625 221.675781 131.667969 C 221.21875 132.773438 220.707031 133.851562 220.144531 134.90625 C 219.578125 135.960938 218.964844 136.984375 218.300781 137.976562 C 217.636719 138.972656 216.925781 139.929688 216.167969 140.855469 C 215.410156 141.777344 214.609375 142.664062 213.761719 143.507812 C 212.917969 144.351562 212.035156 145.15625 211.109375 145.914062 C 210.183594 146.671875 209.226562 147.382812 208.234375 148.046875 C 207.238281 148.710938 206.214844 149.324219 205.160156 149.886719 C 204.105469 150.449219 203.027344 150.960938 201.921875 151.417969 C 200.820312 151.875 199.695312 152.277344 198.550781 152.625 C 197.40625 152.972656 196.25 153.261719 195.078125 153.496094 C 193.902344 153.730469 192.722656 153.902344 191.535156 154.019531 C 190.34375 154.136719 189.152344 154.195312 187.957031 154.195312 C 186.761719 154.195312 185.570312 154.136719 184.378906 154.019531 C 183.1875 153.902344 182.007812 153.730469 180.835938 153.496094 C 179.664062 153.261719 178.503906 152.972656 177.363281 152.625 C 176.21875 152.277344 175.09375 151.875 173.988281 151.417969 C 172.886719 150.960938 171.804688 150.449219 170.75 149.886719 C 169.699219 149.324219 168.671875 148.710938 167.679688 148.046875 C 166.6875 147.382812 165.726562 146.671875 164.804688 145.914062 C 163.878906 145.15625 162.996094 144.351562 162.148438 143.507812 C 161.304688 142.664062 160.503906 141.777344 159.746094 140.855469 C 158.984375 139.929688 158.273438 138.972656 157.609375 137.976562 C 156.945312 136.984375 156.332031 135.960938 155.769531 134.90625 C 155.207031 133.851562 154.695312 132.773438 154.238281 131.667969 C 153.78125 130.5625 153.378906 129.4375 153.03125 128.296875 C 152.683594 127.152344 152.394531 125.992188 152.160156 124.820312 C 151.929688 123.648438 151.753906 122.46875 151.636719 121.277344 C 151.519531 120.089844 151.460938 118.894531 151.460938 117.699219 C 151.460938 116.503906 151.519531 115.3125 151.636719 114.125 C 151.753906 112.933594 151.929688 111.753906 152.160156 110.582031 C 152.394531 109.410156 152.683594 108.25 153.03125 107.105469 C 153.378906 105.960938 153.78125 104.839844 154.238281 103.734375 C 154.695312 102.628906 155.207031 101.550781 155.769531 100.496094 C 156.332031 99.441406 156.945312 98.417969 157.609375 97.425781 C 158.273438 96.429688 158.984375 95.472656 159.746094 94.546875 C 160.503906 93.625 161.304688 92.738281 162.148438 91.894531 C 162.996094 91.046875 163.878906 90.246094 164.804688 89.488281 C 165.726562 88.730469 166.6875 88.019531 167.679688 87.355469 C 168.671875 86.691406 169.699219 86.078125 170.75 85.515625 C 171.804688 84.949219 172.886719 84.441406 173.988281 83.984375 C 175.09375 83.523438 176.21875 83.121094 177.363281 82.777344 C 178.503906 82.429688 179.664062 82.140625 180.835938 81.90625 C 182.007812 81.671875 183.1875 81.496094 184.378906 81.378906 C 185.570312 81.261719 186.761719 81.203125 187.957031 81.203125 C 189.152344 81.203125 190.34375 81.261719 191.535156 81.378906 C 192.722656 81.496094 193.902344 81.671875 195.078125 81.90625 C 196.25 82.140625 197.40625 82.429688 198.550781 82.777344 C 199.695312 83.121094 200.820312 83.523438 201.921875 83.984375 C 203.027344 84.441406 204.105469 84.949219 205.160156 85.515625 C 206.214844 86.078125 207.238281 86.691406 208.234375 87.355469 C 209.226562 88.019531 210.183594 88.730469 211.109375 89.488281 C 212.035156 90.246094 212.917969 91.046875 213.761719 91.894531 C 214.609375 92.738281 215.410156 93.625 216.167969 94.546875 C 216.925781 95.472656 217.636719 96.429688 218.300781 97.425781 C 218.964844 98.417969 219.578125 99.441406 220.144531 100.496094 C 220.707031 101.550781 221.21875 102.628906 221.675781 103.734375 C 222.132812 104.839844 222.535156 105.960938 222.882812 107.105469 C 223.226562 108.25 223.519531 109.410156 223.75 110.582031 C 223.984375 111.753906 224.160156 112.933594 224.277344 114.125 C 224.394531 115.3125 224.453125 116.503906 224.453125 117.699219 Z M 224.453125 117.699219 " fill-opacity="1" fill-rule="nonzero"/><path fill="#fefefe" d="M 224.453125 263.6875 C 224.453125 264.882812 224.394531 266.074219 224.277344 267.261719 C 224.160156 268.453125 223.984375 269.632812 223.75 270.804688 C 223.519531 271.980469 223.226562 273.136719 222.882812 274.28125 C 222.535156 275.425781 222.132812 276.546875 221.675781 277.652344 C 221.21875 278.757812 220.707031 279.835938 220.144531 280.890625 C 219.578125 281.945312 218.964844 282.96875 218.300781 283.960938 C 217.636719 284.957031 216.925781 285.914062 216.167969 286.839844 C 215.410156 287.761719 214.609375 288.648438 213.761719 289.492188 C 212.917969 290.339844 212.035156 291.140625 211.109375 291.898438 C 210.183594 292.65625 209.226562 293.367188 208.234375 294.03125 C 207.238281 294.695312 206.214844 295.308594 205.160156 295.875 C 204.105469 296.4375 203.027344 296.945312 201.921875 297.40625 C 200.820312 297.863281 199.695312 298.265625 198.550781 298.609375 C 197.40625 298.957031 196.25 299.246094 195.078125 299.480469 C 193.902344 299.714844 192.722656 299.890625 191.535156 300.007812 C 190.34375 300.125 189.152344 300.183594 187.957031 300.183594 C 186.761719 300.183594 185.570312 300.125 184.378906 300.007812 C 183.1875 299.890625 182.007812 299.714844 180.835938 299.480469 C 179.664062 299.246094 178.503906 298.957031 177.363281 298.609375 C 176.21875 298.265625 175.09375 297.863281 173.988281 297.40625 C 172.886719 296.945312 171.804688 296.4375 170.75 295.875 C 169.699219 295.308594 168.671875 294.695312 167.679688 294.03125 C 166.6875 293.367188 165.726562 292.65625 164.804688 291.898438 C 163.878906 291.140625 162.996094 290.339844 162.148438 289.492188 C 161.304688 288.648438 160.503906 287.761719 159.746094 286.839844 C 158.984375 285.914062 158.273438 284.957031 157.609375 283.960938 C 156.945312 282.96875 156.332031 281.945312 155.769531 280.890625 C 155.207031 279.835938 154.695312 278.757812 154.238281 277.652344 C 153.78125 276.546875 153.378906 275.425781 153.03125 274.28125 C 152.683594 273.136719 152.394531 271.980469 152.160156 270.804688 C 151.929688 269.632812 151.753906 268.453125 151.636719 267.261719 C 151.519531 266.074219 151.460938 264.882812 151.460938 263.6875 C 151.460938 262.492188 151.519531 261.296875 151.636719 260.109375 C 151.753906 258.917969 151.929688 257.738281 152.160156 256.566406 C 152.394531 255.394531 152.683594 254.234375 153.03125 253.089844 C 153.378906 251.949219 153.78125 250.824219 154.238281 249.71875 C 154.695312 248.617188 155.207031 247.535156 155.769531 246.480469 C 156.332031 245.425781 156.945312 244.402344 157.609375 243.410156 C 158.273438 242.414062 158.984375 241.457031 159.746094 240.53125 C 160.503906 239.609375 161.304688 238.722656 162.148438 237.878906 C 162.996094 237.035156 163.878906 236.230469 164.804688 235.472656 C 165.726562 234.714844 166.6875 234.003906 167.679688 233.339844 C 168.671875 232.675781 169.699219 232.0625 170.75 231.5 C 171.804688 230.9375 172.886719 230.425781 173.988281 229.96875 C 175.09375 229.511719 176.21875 229.109375 177.363281 228.761719 C 178.503906 228.414062 179.664062 228.125 180.835938 227.890625 C 182.007812 227.65625 183.1875 227.484375 184.378906 227.367188 C 185.570312 227.25 186.761719 227.191406 187.957031 227.191406 C 189.152344 227.191406 190.34375 227.25 191.535156 227.367188 C 192.722656 227.484375 193.902344 227.65625 195.078125 227.890625 C 196.25 228.125 197.40625 228.414062 198.550781 228.761719 C 199.695312 229.109375 200.820312 229.511719 201.921875 229.96875 C 203.027344 230.425781 204.105469 230.9375 205.160156 231.5 C 206.214844 232.0625 207.238281 232.675781 208.234375 233.339844 C 209.226562 234.003906 210.183594 234.714844 211.109375 235.472656 C 212.035156 236.230469 212.917969 237.035156 213.761719 237.878906 C 214.609375 238.722656 215.410156 239.609375 216.167969 240.53125 C 216.925781 241.457031 217.636719 242.414062 218.300781 243.410156 C 218.964844 244.402344 219.578125 245.425781 220.144531 246.480469 C 220.707031 247.535156 221.21875 248.617188 221.675781 249.71875 C 222.132812 250.824219 222.535156 251.949219 222.882812 253.089844 C 223.226562 254.234375 223.519531 255.394531 223.75 256.566406 C 223.984375 257.738281 224.160156 258.917969 224.277344 260.109375 C 224.394531 261.296875 224.453125 262.492188 224.453125 263.6875 Z M 224.453125 263.6875 " fill-opacity="1" fill-rule="nonzero"/><path fill="#fefefe" d="M 187.957031 263.6875 C 187.359375 263.6875 186.761719 263.65625 186.167969 263.597656 C 185.574219 263.539062 184.980469 263.453125 184.394531 263.335938 C 183.808594 263.21875 183.230469 263.074219 182.660156 262.898438 C 182.085938 262.726562 181.523438 262.527344 180.972656 262.296875 C 180.421875 262.066406 179.882812 261.8125 179.355469 261.53125 C 178.828125 261.25 178.316406 260.941406 177.816406 260.609375 C 177.320312 260.277344 176.839844 259.921875 176.378906 259.542969 C 175.917969 259.164062 175.476562 258.765625 175.054688 258.339844 C 174.628906 257.917969 174.230469 257.476562 173.851562 257.015625 C 173.472656 256.550781 173.117188 256.074219 172.785156 255.574219 C 172.453125 255.078125 172.144531 254.566406 171.863281 254.039062 C 171.582031 253.511719 171.324219 252.972656 171.097656 252.421875 C 170.867188 251.867188 170.667969 251.308594 170.492188 250.734375 C 170.320312 250.164062 170.175781 249.585938 170.058594 248.996094 C 169.941406 248.410156 169.855469 247.820312 169.796875 247.226562 C 169.738281 246.632812 169.707031 246.035156 169.707031 245.4375 L 169.707031 135.949219 C 169.707031 135.351562 169.738281 134.753906 169.796875 134.160156 C 169.855469 133.566406 169.941406 132.976562 170.058594 132.390625 C 170.175781 131.800781 170.320312 131.222656 170.492188 130.652344 C 170.667969 130.078125 170.867188 129.519531 171.097656 128.964844 C 171.324219 128.414062 171.582031 127.875 171.863281 127.347656 C 172.144531 126.820312 172.453125 126.308594 172.785156 125.8125 C 173.117188 125.3125 173.472656 124.835938 173.851562 124.371094 C 174.230469 123.910156 174.628906 123.46875 175.054688 123.046875 C 175.476562 122.621094 175.917969 122.222656 176.378906 121.84375 C 176.839844 121.464844 177.320312 121.109375 177.816406 120.777344 C 178.316406 120.445312 178.828125 120.136719 179.355469 119.855469 C 179.882812 119.574219 180.421875 119.320312 180.972656 119.089844 C 181.523438 118.859375 182.085938 118.660156 182.660156 118.488281 C 183.230469 118.3125 183.808594 118.167969 184.394531 118.050781 C 184.980469 117.933594 185.574219 117.847656 186.167969 117.789062 C 186.761719 117.730469 187.359375 117.699219 187.957031 117.699219 C 188.554688 117.699219 189.148438 117.730469 189.746094 117.789062 C 190.339844 117.847656 190.929688 117.933594 191.515625 118.050781 C 192.101562 118.167969 192.679688 118.3125 193.253906 118.488281 C 193.824219 118.660156 194.386719 118.859375 194.941406 119.089844 C 195.492188 119.320312 196.03125 119.574219 196.558594 119.855469 C 197.085938 120.136719 197.597656 120.445312 198.09375 120.777344 C 198.589844 121.109375 199.070312 121.464844 199.53125 121.84375 C 199.996094 122.222656 200.4375 122.621094 200.859375 123.046875 C 201.28125 123.46875 201.683594 123.910156 202.0625 124.371094 C 202.441406 124.835938 202.796875 125.3125 203.128906 125.8125 C 203.460938 126.308594 203.769531 126.820312 204.050781 127.347656 C 204.332031 127.875 204.585938 128.414062 204.816406 128.964844 C 205.042969 129.519531 205.246094 130.078125 205.417969 130.652344 C 205.59375 131.222656 205.738281 131.800781 205.855469 132.390625 C 205.96875 132.976562 206.058594 133.566406 206.117188 134.160156 C 206.175781 134.753906 206.203125 135.351562 206.203125 135.949219 L 206.203125 245.4375 C 206.203125 246.035156 206.175781 246.632812 206.117188 247.226562 C 206.058594 247.820312 205.96875 248.410156 205.855469 248.996094 C 205.738281 249.585938 205.59375 250.164062 205.417969 250.734375 C 205.246094 251.308594 205.042969 251.867188 204.816406 252.421875 C 204.585938 252.972656 204.332031 253.511719 204.050781 254.039062 C 203.769531 254.566406 203.460938 255.078125 203.128906 255.574219 C 202.796875 256.074219 202.441406 256.550781 202.0625 257.015625 C 201.683594 257.476562 201.28125 257.917969 200.859375 258.339844 C 200.4375 258.765625 199.996094 259.164062 199.53125 259.542969 C 199.070312 259.921875 198.589844 260.277344 198.09375 260.609375 C 197.597656 260.941406 197.085938 261.25 196.558594 261.53125 C 196.03125 261.8125 195.492188 262.066406 194.941406 262.296875 C 194.386719 262.527344 193.824219 262.726562 193.253906 262.898438 C 192.679688 263.074219 192.101562 263.21875 191.515625 263.335938 C 190.929688 263.453125 190.339844 263.539062 189.746094 263.597656 C 189.148438 263.65625 188.554688 263.6875 187.957031 263.6875 Z M 187.957031 263.6875 " fill-opacity="1" fill-rule="nonzero"/><path fill="#fefefe" d="M 242.699219 190.695312 C 240.28125 190.699219 237.953125 190.238281 235.714844 189.308594 C 233.480469 188.382812 231.507812 187.0625 229.800781 185.347656 L 193.304688 148.851562 C 192.890625 148.425781 192.503906 147.980469 192.136719 147.519531 C 191.769531 147.054688 191.425781 146.574219 191.101562 146.078125 C 190.78125 145.582031 190.488281 145.074219 190.214844 144.546875 C 189.945312 144.023438 189.699219 143.484375 189.480469 142.9375 C 189.261719 142.386719 189.070312 141.828125 188.902344 141.261719 C 188.738281 140.695312 188.601562 140.121094 188.492188 139.539062 C 188.382812 138.957031 188.304688 138.371094 188.25 137.785156 C 188.199219 137.195312 188.175781 136.605469 188.179688 136.015625 C 188.1875 135.421875 188.21875 134.835938 188.28125 134.246094 C 188.34375 133.660156 188.433594 133.074219 188.554688 132.496094 C 188.671875 131.917969 188.820312 131.347656 188.996094 130.78125 C 189.167969 130.214844 189.371094 129.660156 189.601562 129.117188 C 189.828125 128.570312 190.082031 128.039062 190.363281 127.519531 C 190.644531 127 190.949219 126.492188 191.277344 126 C 191.605469 125.511719 191.960938 125.039062 192.335938 124.582031 C 192.710938 124.125 193.105469 123.6875 193.523438 123.269531 C 193.941406 122.851562 194.378906 122.453125 194.835938 122.078125 C 195.292969 121.703125 195.765625 121.351562 196.257812 121.023438 C 196.746094 120.691406 197.253906 120.386719 197.773438 120.109375 C 198.292969 119.828125 198.828125 119.574219 199.371094 119.34375 C 199.917969 119.117188 200.472656 118.914062 201.035156 118.738281 C 201.601562 118.566406 202.171875 118.417969 202.75 118.300781 C 203.332031 118.179688 203.914062 118.089844 204.5 118.027344 C 205.089844 117.964844 205.679688 117.929688 206.269531 117.925781 C 206.859375 117.921875 207.449219 117.945312 208.039062 117.996094 C 208.628906 118.046875 209.214844 118.128906 209.792969 118.238281 C 210.375 118.347656 210.949219 118.484375 211.515625 118.648438 C 212.085938 118.8125 212.644531 119.003906 213.191406 119.222656 C 213.742188 119.441406 214.277344 119.6875 214.800781 119.960938 C 215.328125 120.230469 215.839844 120.527344 216.335938 120.847656 C 216.832031 121.167969 217.3125 121.511719 217.773438 121.878906 C 218.238281 122.246094 218.679688 122.636719 219.105469 123.046875 L 255.601562 159.542969 C 256.238281 160.179688 256.820312 160.855469 257.355469 161.578125 C 257.890625 162.296875 258.367188 163.054688 258.792969 163.84375 C 259.214844 164.636719 259.578125 165.453125 259.878906 166.300781 C 260.179688 167.144531 260.417969 168.007812 260.59375 168.886719 C 260.769531 169.765625 260.878906 170.65625 260.921875 171.550781 C 260.96875 172.445312 260.945312 173.339844 260.855469 174.234375 C 260.769531 175.128906 260.617188 176.007812 260.398438 176.878906 C 260.179688 177.75 259.898438 178.597656 259.554688 179.429688 C 259.214844 180.257812 258.8125 181.054688 258.347656 181.824219 C 257.886719 182.59375 257.371094 183.328125 256.804688 184.019531 C 256.234375 184.714844 255.617188 185.363281 254.953125 185.964844 C 254.289062 186.566406 253.582031 187.117188 252.835938 187.617188 C 252.089844 188.117188 251.3125 188.554688 250.5 188.941406 C 249.691406 189.324219 248.855469 189.644531 247.996094 189.90625 C 247.136719 190.167969 246.265625 190.363281 245.378906 190.496094 C 244.492188 190.628906 243.597656 190.691406 242.699219 190.695312 Z M 242.699219 190.695312 " fill-opacity="1" fill-rule="nonzero"/><path fill="#fefefe" d="M 169.707031 117.699219 C 167.289062 117.707031 164.957031 117.246094 162.722656 116.316406 C 160.488281 115.390625 158.515625 114.070312 156.804688 112.355469 L 122.136719 77.683594 C 121.722656 77.257812 121.335938 76.8125 120.96875 76.351562 C 120.601562 75.886719 120.257812 75.40625 119.933594 74.910156 C 119.613281 74.414062 119.320312 73.90625 119.046875 73.378906 C 118.777344 72.855469 118.53125 72.316406 118.3125 71.769531 C 118.09375 71.21875 117.902344 70.660156 117.734375 70.09375 C 117.570312 69.527344 117.433594 68.953125 117.324219 68.371094 C 117.214844 67.789062 117.136719 67.203125 117.082031 66.617188 C 117.03125 66.027344 117.007812 65.4375 117.011719 64.847656 C 117.019531 64.253906 117.050781 63.667969 117.113281 63.078125 C 117.175781 62.492188 117.265625 61.90625 117.386719 61.328125 C 117.503906 60.75 117.652344 60.179688 117.828125 59.613281 C 118 59.046875 118.203125 58.492188 118.433594 57.949219 C 118.660156 57.402344 118.914062 56.871094 119.195312 56.351562 C 119.476562 55.832031 119.78125 55.324219 120.109375 54.835938 C 120.4375 54.34375 120.792969 53.871094 121.167969 53.414062 C 121.542969 52.957031 121.9375 52.519531 122.355469 52.101562 C 122.773438 51.683594 123.210938 51.285156 123.667969 50.910156 C 124.125 50.535156 124.597656 50.183594 125.089844 49.855469 C 125.582031 49.523438 126.085938 49.21875 126.605469 48.941406 C 127.125 48.660156 127.660156 48.40625 128.203125 48.175781 C 128.75 47.949219 129.304688 47.746094 129.867188 47.570312 C 130.433594 47.398438 131.003906 47.25 131.585938 47.132812 C 132.164062 47.011719 132.746094 46.921875 133.335938 46.859375 C 133.921875 46.796875 134.511719 46.761719 135.101562 46.757812 C 135.691406 46.753906 136.28125 46.777344 136.871094 46.828125 C 137.460938 46.878906 138.046875 46.960938 138.625 47.070312 C 139.207031 47.179688 139.78125 47.316406 140.347656 47.480469 C 140.917969 47.644531 141.476562 47.835938 142.023438 48.054688 C 142.574219 48.277344 143.109375 48.519531 143.636719 48.792969 C 144.160156 49.0625 144.671875 49.359375 145.167969 49.679688 C 145.664062 50 146.144531 50.34375 146.605469 50.710938 C 147.070312 51.078125 147.511719 51.46875 147.9375 51.878906 L 182.609375 86.550781 C 183.242188 87.1875 183.828125 87.863281 184.363281 88.585938 C 184.898438 89.304688 185.375 90.0625 185.796875 90.851562 C 186.222656 91.644531 186.582031 92.460938 186.886719 93.304688 C 187.1875 94.152344 187.425781 95.011719 187.601562 95.894531 C 187.777344 96.773438 187.886719 97.660156 187.929688 98.558594 C 187.972656 99.453125 187.953125 100.347656 187.863281 101.242188 C 187.777344 102.132812 187.625 103.015625 187.40625 103.886719 C 187.1875 104.757812 186.90625 105.605469 186.5625 106.433594 C 186.21875 107.265625 185.816406 108.0625 185.355469 108.832031 C 184.894531 109.601562 184.378906 110.335938 183.8125 111.027344 C 183.242188 111.722656 182.625 112.371094 181.960938 112.972656 C 181.296875 113.574219 180.589844 114.125 179.84375 114.625 C 179.097656 115.121094 178.320312 115.5625 177.507812 115.949219 C 176.699219 116.332031 175.863281 116.652344 175.003906 116.914062 C 174.144531 117.175781 173.273438 117.371094 172.386719 117.503906 C 171.496094 117.632812 170.605469 117.699219 169.707031 117.699219 Z M 169.707031 117.699219 " fill-opacity="1" fill-rule="nonzero"/><path fill="#fefefe" d="M 187.957031 372.917969 C 184.238281 372.957031 180.554688 372.636719 176.898438 371.957031 C 173.246094 371.273438 169.691406 370.246094 166.238281 368.871094 C 162.785156 367.496094 159.496094 365.800781 156.375 363.78125 C 153.253906 361.765625 150.355469 359.464844 147.683594 356.878906 L 21.769531 230.96875 C 20.496094 229.621094 19.292969 228.21875 18.152344 226.761719 C 17.011719 225.300781 15.945312 223.792969 14.949219 222.230469 C 13.953125 220.671875 13.03125 219.066406 12.1875 217.417969 C 11.34375 215.769531 10.578125 214.085938 9.894531 212.367188 C 9.210938 210.648438 8.609375 208.898438 8.089844 207.121094 C 7.570312 205.34375 7.136719 203.546875 6.789062 201.726562 C 6.4375 199.910156 6.175781 198.078125 6 196.234375 C 5.828125 194.390625 5.738281 192.542969 5.738281 190.695312 C 5.738281 188.84375 5.828125 186.996094 6 185.152344 C 6.175781 183.308594 6.4375 181.476562 6.789062 179.660156 C 7.136719 177.839844 7.570312 176.042969 8.089844 174.265625 C 8.609375 172.488281 9.210938 170.738281 9.894531 169.019531 C 10.578125 167.300781 11.34375 165.617188 12.1875 163.96875 C 13.03125 162.320312 13.953125 160.714844 14.949219 159.15625 C 15.945312 157.59375 17.011719 156.085938 18.152344 154.625 C 19.292969 153.167969 20.496094 151.765625 21.769531 150.417969 L 147.683594 24.507812 C 149.027344 23.234375 150.429688 22.027344 151.890625 20.886719 C 153.347656 19.746094 154.859375 18.679688 156.417969 17.683594 C 157.980469 16.6875 159.582031 15.765625 161.230469 14.921875 C 162.878906 14.074219 164.5625 13.3125 166.285156 12.625 C 168.003906 11.941406 169.753906 11.339844 171.53125 10.820312 C 173.308594 10.300781 175.105469 9.867188 176.925781 9.515625 C 178.742188 9.167969 180.574219 8.90625 182.417969 8.730469 C 184.261719 8.554688 186.109375 8.46875 187.960938 8.46875 C 189.8125 8.46875 191.660156 8.554688 193.503906 8.730469 C 195.347656 8.90625 197.179688 9.167969 198.996094 9.515625 C 200.816406 9.867188 202.613281 10.300781 204.390625 10.820312 C 206.167969 11.339844 207.917969 11.941406 209.636719 12.625 C 211.359375 13.3125 213.042969 14.074219 214.691406 14.921875 C 216.339844 15.765625 217.941406 16.6875 219.503906 17.683594 C 221.0625 18.679688 222.574219 19.746094 224.03125 20.886719 C 225.492188 22.027344 226.894531 23.234375 228.238281 24.507812 L 354.152344 150.417969 C 355.425781 151.765625 356.628906 153.167969 357.769531 154.625 C 358.910156 156.085938 359.976562 157.59375 360.972656 159.15625 C 361.96875 160.714844 362.890625 162.320312 363.734375 163.96875 C 364.578125 165.617188 365.34375 167.300781 366.027344 169.019531 C 366.710938 170.738281 367.3125 172.488281 367.832031 174.265625 C 368.351562 176.042969 368.785156 177.839844 369.132812 179.660156 C 369.484375 181.476562 369.746094 183.308594 369.917969 185.152344 C 370.09375 186.996094 370.183594 188.84375 370.183594 190.695312 C 370.183594 192.542969 370.09375 194.390625 369.921875 196.234375 C 369.746094 198.078125 369.484375 199.910156 369.132812 201.726562 C 368.785156 203.546875 368.351562 205.34375 367.832031 207.121094 C 367.3125 208.898438 366.710938 210.648438 366.027344 212.367188 C 365.34375 214.085938 364.578125 215.769531 363.734375 217.417969 C 362.890625 219.066406 361.96875 220.671875 360.972656 222.230469 C 359.976562 223.792969 358.910156 225.300781 357.769531 226.761719 C 356.628906 228.21875 355.425781 229.621094 354.152344 230.96875 L 228.238281 356.878906 C 225.566406 359.464844 222.667969 361.765625 219.546875 363.785156 C 216.421875 365.800781 213.132812 367.5 209.679688 368.875 C 206.226562 370.25 202.671875 371.277344 199.015625 371.957031 C 195.359375 372.640625 191.675781 372.960938 187.957031 372.917969 Z M 187.957031 44.964844 C 186.636719 44.921875 185.324219 45.003906 184.019531 45.214844 C 182.714844 45.425781 181.441406 45.761719 180.203125 46.222656 C 178.960938 46.679688 177.777344 47.253906 176.648438 47.941406 C 175.519531 48.628906 174.46875 49.417969 173.496094 50.308594 L 47.582031 176.222656 C 46.726562 177.222656 45.96875 178.292969 45.300781 179.425781 C 44.636719 180.5625 44.074219 181.746094 43.621094 182.980469 C 43.164062 184.214844 42.820312 185.480469 42.589844 186.777344 C 42.359375 188.070312 42.242188 189.378906 42.242188 190.695312 C 42.242188 192.007812 42.359375 193.316406 42.589844 194.609375 C 42.820312 195.90625 43.164062 197.171875 43.621094 198.40625 C 44.074219 199.640625 44.636719 200.824219 45.300781 201.960938 C 45.96875 203.09375 46.726562 204.164062 47.582031 205.164062 L 173.496094 331.078125 C 174.511719 331.894531 175.589844 332.621094 176.730469 333.253906 C 177.871094 333.890625 179.058594 334.425781 180.289062 334.859375 C 181.523438 335.292969 182.78125 335.617188 184.066406 335.839844 C 185.355469 336.058594 186.652344 336.167969 187.957031 336.167969 C 189.261719 336.167969 190.558594 336.058594 191.84375 335.839844 C 193.132812 335.617188 194.390625 335.292969 195.621094 334.859375 C 196.851562 334.425781 198.039062 333.890625 199.179688 333.253906 C 200.320312 332.621094 201.398438 331.894531 202.417969 331.078125 L 328.332031 205.164062 C 329.183594 204.164062 329.945312 203.09375 330.609375 201.960938 C 331.277344 200.824219 331.835938 199.640625 332.292969 198.40625 C 332.746094 197.171875 333.089844 195.90625 333.320312 194.609375 C 333.554688 193.316406 333.667969 192.007812 333.667969 190.695312 C 333.667969 189.378906 333.554688 188.070312 333.320312 186.777344 C 333.089844 185.480469 332.746094 184.214844 332.292969 182.980469 C 331.835938 181.746094 331.277344 180.5625 330.609375 179.425781 C 329.945312 178.292969 329.183594 177.222656 328.332031 176.222656 L 202.417969 50.308594 C 200.449219 48.511719 198.210938 47.148438 195.710938 46.222656 C 193.207031 45.296875 190.621094 44.878906 187.957031 44.964844 Z M 187.957031 44.964844 " fill-opacity="1" fill-rule="nonzero"/></svg>