<svg xmlns="http://www.w3.org/2000/svg" xmlns:xlink="http://www.w3.org/1999/xlink" width="500" zoomAndPan="magnify" viewBox="0 0 375 374.999991" height="500" preserveAspectRatio="xMidYMid meet" version="1.0"><defs><clipPath id="9eb16e4827"><path d="M 9 16.703125 L 366.851562 16.703125 L 366.851562 375 L 9 375 Z M 9 16.703125 " clip-rule="nonzero"/></clipPath><clipPath id="02b576991d"><path d="M 9 16.703125 L 189 16.703125 L 189 375 L 9 375 Z M 9 16.703125 " clip-rule="nonzero"/></clipPath></defs><g clip-path="url(#9eb16e4827)"><path fill="#ffc44d" d="M 21.691406 15.867188 C 18.101562 15.867188 14.6875 17.40625 12.316406 20.097656 C 9.941406 22.785156 8.835938 26.367188 9.28125 29.925781 L 42.628906 296.714844 C 43.148438 300.867188 45.707031 304.480469 49.445312 306.351562 L 182.84375 373.046875 C 186.363281 374.808594 190.507812 374.808594 194.027344 373.046875 L 327.421875 306.351562 C 331.164062 304.480469 333.71875 300.867188 334.238281 296.714844 L 367.585938 29.925781 C 368.03125 26.367188 366.925781 22.785156 364.554688 20.097656 C 362.179688 17.40625 358.765625 15.867188 355.179688 15.867188 Z M 21.691406 15.867188 " fill-opacity="1" fill-rule="nonzero"/></g><g clip-path="url(#02b576991d)"><path fill="#e5b045" d="M 188.433594 15.867188 L 188.433594 374.367188 C 186.519531 374.367188 184.601562 373.929688 182.84375 373.046875 L 49.445312 306.351562 C 45.707031 304.480469 43.148438 300.867188 42.628906 296.714844 L 9.28125 29.925781 C 8.835938 26.367188 9.941406 22.785156 12.316406 20.097656 C 14.6875 17.40625 18.101562 15.867188 21.691406 15.867188 Z M 188.433594 15.867188 " fill-opacity="1" fill-rule="evenodd"/></g><path fill="#cfd8dc" d="M 163.425781 65.890625 C 170.332031 65.890625 175.929688 71.492188 175.929688 78.398438 L 175.929688 295.164062 C 175.929688 299.625 173.558594 303.742188 169.699219 305.980469 C 165.847656 308.21875 161.089844 308.234375 157.21875 306.023438 L 98.859375 272.675781 C 92.863281 269.246094 90.78125 261.605469 94.207031 255.609375 C 97.632812 249.613281 105.273438 247.53125 111.269531 250.957031 L 150.917969 273.613281 L 150.917969 78.398438 C 150.917969 71.492188 156.519531 65.890625 163.425781 65.890625 Z M 163.425781 65.890625 " fill-opacity="1" fill-rule="evenodd"/><path fill="#eceff1" d="M 200.945312 78.398438 C 200.945312 71.492188 206.542969 65.890625 213.449219 65.890625 L 296.820312 65.890625 C 303.726562 65.890625 309.328125 71.492188 309.328125 78.398438 C 309.328125 85.304688 303.726562 90.902344 296.820312 90.902344 L 225.957031 90.902344 L 225.957031 171.191406 L 285.769531 157.898438 C 289.667969 157.03125 293.746094 158.078125 296.742188 160.714844 C 299.742188 163.351562 301.300781 167.261719 300.9375 171.238281 L 292.601562 262.949219 C 292.210938 267.261719 289.613281 271.066406 285.738281 273 L 219.042969 306.351562 C 212.863281 309.4375 205.351562 306.933594 202.261719 300.757812 C 199.175781 294.578125 201.679688 287.066406 207.855469 283.980469 L 268.324219 253.746094 L 274.480469 186.027344 L 216.164062 198.988281 C 212.460938 199.8125 208.582031 198.910156 205.625 196.535156 C 202.664062 194.164062 200.945312 190.574219 200.945312 186.78125 Z M 200.945312 78.398438 " fill-opacity="1" fill-rule="evenodd"/></svg>