<svg xmlns="http://www.w3.org/2000/svg" xmlns:xlink="http://www.w3.org/1999/xlink" width="500" zoomAndPan="magnify" viewBox="0 0 375 374.999991" height="500" preserveAspectRatio="xMidYMid meet" version="1.0"><path fill="#599636" d="M 187.082031 1.019531 L 197.109375 19.816406 C 199.367188 23.285156 201.808594 26.355469 204.683594 29.214844 C 213.082031 37.59375 221.054688 46.371094 228.214844 55.769531 C 245.207031 78.035156 256.667969 102.761719 264.851562 129.503906 C 269.761719 145.839844 272.425781 162.597656 272.625 179.542969 C 273.445312 230.203125 256.046875 273.703125 220.960938 309.855469 C 215.230469 315.574219 209.101562 320.871094 202.523438 325.582031 C 199.046875 325.582031 197.40625 322.921875 195.972656 320.472656 C 193.308594 315.984375 191.675781 310.863281 190.851562 305.765625 C 189.621094 299.636719 188.808594 293.507812 189.207031 287.179688 L 189.207031 284.320312 C 188.925781 283.710938 185.863281 2.460938 187.082031 1.019531 Z M 187.082031 1.019531 " fill-opacity="1" fill-rule="nonzero"/><path fill="#6cac48" d="M 187.082031 0.398438 C 186.671875 -0.421875 186.261719 0.199219 185.851562 0.597656 C 186.050781 4.699219 184.617188 8.355469 182.375 11.847656 C 179.910156 15.316406 176.644531 17.976562 173.367188 20.835938 C 155.167969 36.5625 140.84375 55.558594 129.371094 76.804688 C 114.105469 105.398438 106.238281 136.042969 104.007812 168.304688 C 102.984375 179.941406 107.695312 221.003906 111.371094 232.851562 C 121.398438 264.304688 139.410156 290.660156 162.742188 313.535156 C 168.472656 319.042969 174.601562 324.152344 180.941406 329.0625 C 182.785156 329.0625 182.984375 327.421875 183.40625 326.203125 C 184.21875 323.589844 184.832031 320.933594 185.25 318.234375 L 189.359375 287.601562 Z M 187.082031 0.398438 " fill-opacity="1" fill-rule="nonzero"/><path fill="#c2bfbf" d="M 197.109375 338.027344 C 197.523438 333.339844 199.777344 329.449219 202.230469 325.570312 C 199.765625 324.550781 197.933594 322.523438 196.5 320.261719 C 195.269531 318.222656 194.246094 315.773438 193.449219 313.523438 C 190.582031 304.945312 189.972656 295.945312 189.148438 287.179688 L 189.148438 281.871094 C 188.128906 282.691406 187.917969 289.628906 187.917969 290.660156 C 187.320312 299.9375 186.089844 309.128906 184.230469 318.234375 C 183.621094 321.914062 183.207031 325.582031 180.941406 328.851562 C 180.941406 329.261719 180.941406 329.671875 181.140625 330.28125 C 184.828125 341.109375 185.839844 352.136719 186.460938 363.375 L 186.460938 367.476562 C 186.460938 372.375 186.261719 371.34375 190.335938 372.984375 C 191.980469 373.59375 193.8125 373.804688 195.457031 375.023438 C 196.6875 375.023438 196.886719 374.003906 196.886719 373.183594 L 196.277344 366.445312 L 196.277344 347.648438 C 196.078125 344.367188 196.6875 341.109375 197.097656 338.039062 Z M 197.109375 338.027344 " fill-opacity="1" fill-rule="nonzero"/></svg>