<svg xmlns="http://www.w3.org/2000/svg" xmlns:xlink="http://www.w3.org/1999/xlink" width="500" zoomAndPan="magnify" viewBox="0 0 375 374.999991" height="500" preserveAspectRatio="xMidYMid meet" version="1.0"><defs><clipPath id="d473cb2a4f"><path d="M 14.296875 158 L 289 158 L 289 275 L 14.296875 275 Z M 14.296875 158 " clip-rule="nonzero"/></clipPath><clipPath id="e14431c5f8"><path d="M 72 0 L 360.796875 0 L 360.796875 375 L 72 375 Z M 72 0 " clip-rule="nonzero"/></clipPath></defs><path fill="#e44d26" d="M 213.761719 191.367188 C 211.421875 191.367188 209.707031 191.523438 208.550781 191.683594 L 208.550781 241.484375 C 209.648438 241.542969 210.960938 241.542969 212.03125 241.542969 L 212.042969 241.542969 C 219.316406 241.542969 224.78125 239.4375 228.578125 235.226562 C 232.660156 230.726562 234.738281 223.976562 234.738281 215.105469 C 234.738281 199.804688 227.292969 191.367188 213.761719 191.367188 Z M 213.761719 191.367188 " fill-opacity="1" fill-rule="nonzero"/><g clip-path="url(#d473cb2a4f)"><path fill="#e44d26" d="M 274.109375 158.652344 L 28.851562 158.652344 C 20.902344 158.652344 14.421875 165.128906 14.421875 173.078125 L 14.421875 259.617188 C 14.421875 267.5625 20.902344 274.039062 28.851562 274.039062 L 274.109375 274.039062 C 282.058594 274.039062 288.535156 267.5625 288.535156 259.617188 L 288.535156 173.078125 C 288.535156 165.128906 282.058594 158.652344 274.109375 158.652344 Z M 92.789062 221.453125 C 86.890625 227.554688 78.074219 230.769531 67.339844 230.769531 C 66.085938 230.769531 64.976562 230.726562 63.996094 230.640625 L 63.996094 257.4375 C 63.996094 258.707031 62.96875 259.730469 61.699219 259.730469 L 45.28125 259.730469 C 44.027344 259.730469 43.003906 258.707031 43.003906 257.4375 L 43.003906 176.507812 C 43.003906 175.414062 43.796875 174.476562 44.863281 174.273438 C 50.953125 173.132812 58.613281 172.527344 67.6875 172.527344 C 78.390625 172.527344 86.226562 174.878906 91.609375 179.695312 C 97.046875 184.398438 100.191406 191.957031 100.191406 200.378906 C 100.175781 209.132812 97.566406 216.632812 92.789062 221.453125 Z M 137.226562 260.972656 C 128.164062 260.972656 119.496094 258.128906 115.269531 255.503906 C 114.445312 255 114.042969 254.019531 114.257812 253.082031 L 117.605469 237.867188 C 117.777344 237.160156 118.238281 236.554688 118.917969 236.265625 C 119.597656 235.976562 120.375 236.003906 120.996094 236.394531 C 124.949219 238.703125 131.570312 241.167969 138.222656 241.167969 C 141.710938 241.167969 147.539062 240.316406 147.539062 234.589844 C 147.539062 231.273438 145.824219 228.792969 136.734375 225.273438 C 122.335938 219.546875 115.050781 210.632812 115.050781 198.820312 C 115.050781 183 127.371094 171.953125 145.058594 171.953125 C 152.664062 171.953125 159.3125 173.453125 164.808594 176.367188 C 165.734375 176.839844 166.222656 177.910156 165.964844 178.933594 L 162.269531 193.773438 C 162.097656 194.464844 161.621094 195.042969 160.957031 195.316406 C 160.335938 195.589844 159.558594 195.5625 158.9375 195.214844 C 156.527344 193.875 151.480469 191.609375 144.8125 191.609375 C 139.722656 191.609375 136.445312 193.804688 136.445312 197.234375 C 136.445312 200.726562 138.839844 202.585938 148.652344 206.683594 C 162.5 212.421875 168.964844 220.859375 168.964844 233.265625 C 168.980469 246.042969 160.65625 260.972656 137.226562 260.972656 Z M 244.027344 249.375 C 236.136719 256.714844 223.886719 260.597656 208.550781 260.597656 C 199.492188 260.597656 193.144531 259.902344 189.40625 259.339844 C 188.28125 259.152344 187.445312 258.214844 187.445312 257.089844 L 187.445312 176.667969 C 187.445312 175.570312 188.253906 174.605469 189.335938 174.417969 C 195.988281 173.222656 204.050781 172.542969 212.03125 172.542969 C 226.195312 172.542969 235.933594 175.414062 243.59375 181.847656 C 252.238281 189.042969 256.8125 200.335938 256.8125 214.515625 C 256.824219 233.179688 249.855469 243.765625 244.027344 249.375 Z M 244.027344 249.375 " fill-opacity="1" fill-rule="nonzero"/></g><path fill="#e44d26" d="M 68.4375 191.234375 C 66.375 191.234375 64.945312 191.320312 63.980469 191.453125 L 63.980469 211.847656 C 64.84375 211.945312 65.882812 211.976562 67.242188 211.976562 C 74.828125 211.976562 79.1875 207.980469 79.1875 201 C 79.1875 192.921875 73.34375 191.234375 68.4375 191.234375 Z M 68.4375 191.234375 " fill-opacity="1" fill-rule="nonzero"/><g clip-path="url(#e14431c5f8)"><path fill="#e44d26" d="M 321.226562 60.679688 C 317.707031 57.214844 314.101562 53.695312 310.550781 50.121094 C 306.972656 46.570312 303.453125 42.964844 299.992188 39.445312 C 275.292969 14.25 260.589844 0 245.253906 0 L 129.839844 0 C 98.027344 0 72.132812 25.890625 72.132812 57.691406 L 72.132812 161.539062 L 100.984375 161.539062 L 100.984375 57.691406 C 100.984375 41.769531 113.910156 28.847656 129.839844 28.847656 L 234.996094 28.789062 C 245.398438 31.441406 245.253906 44.222656 245.253906 57.015625 L 245.253906 100.960938 C 245.253906 108.910156 251.734375 115.382812 259.683594 115.382812 L 302.960938 115.382812 C 317.359375 115.382812 331.816406 115.457031 331.816406 129.808594 L 331.816406 317.308594 C 331.816406 333.230469 318.890625 346.152344 302.960938 346.152344 L 129.839844 346.152344 C 113.910156 346.152344 100.984375 333.230469 100.984375 317.308594 L 100.984375 271.152344 L 72.132812 271.152344 L 72.132812 317.308594 C 72.132812 349.109375 98.027344 375 129.839844 375 L 302.960938 375 C 334.773438 375 360.671875 349.109375 360.671875 317.308594 L 360.671875 115.382812 C 360.671875 100.066406 346.417969 85.355469 321.226562 60.679688 Z M 321.226562 60.679688 " fill-opacity="1" fill-rule="nonzero"/></g></svg>