<svg xmlns="http://www.w3.org/2000/svg" xmlns:xlink="http://www.w3.org/1999/xlink" width="500" zoomAndPan="magnify" viewBox="0 0 375 374.999991" height="500" preserveAspectRatio="xMidYMid meet" version="1.0"><defs><clipPath id="8b566bec47"><path d="M 13.652344 40 L 361.652344 40 L 361.652344 335 L 13.652344 335 Z M 13.652344 40 " clip-rule="nonzero"/></clipPath><clipPath id="fac1096dc3"><path d="M 13.652344 24.714844 L 361.652344 24.714844 L 361.652344 350.214844 L 13.652344 350.214844 Z M 13.652344 24.714844 " clip-rule="nonzero"/></clipPath></defs><path fill="#00d8ff" d="M 218.730469 187.179688 C 218.730469 188.195312 218.679688 189.210938 218.582031 190.222656 C 218.480469 191.234375 218.332031 192.238281 218.132812 193.234375 C 217.933594 194.234375 217.6875 195.21875 217.390625 196.191406 C 217.097656 197.164062 216.753906 198.121094 216.363281 199.058594 C 215.976562 200 215.539062 200.917969 215.0625 201.8125 C 214.582031 202.710938 214.058594 203.582031 213.492188 204.425781 C 212.925781 205.269531 212.320312 206.085938 211.675781 206.871094 C 211.03125 207.660156 210.347656 208.410156 209.628906 209.128906 C 208.910156 209.847656 208.15625 210.53125 207.367188 211.175781 C 206.582031 211.820312 205.765625 212.425781 204.917969 212.992188 C 204.074219 213.554688 203.203125 214.078125 202.304688 214.554688 C 201.40625 215.035156 200.488281 215.46875 199.546875 215.859375 C 198.605469 216.246094 197.648438 216.589844 196.675781 216.886719 C 195.703125 217.179688 194.714844 217.425781 193.71875 217.625 C 192.71875 217.824219 191.714844 217.972656 190.699219 218.074219 C 189.6875 218.171875 188.671875 218.222656 187.65625 218.222656 C 186.636719 218.222656 185.621094 218.171875 184.609375 218.074219 C 183.597656 217.972656 182.589844 217.824219 181.59375 217.625 C 180.59375 217.425781 179.609375 217.179688 178.632812 216.886719 C 177.660156 216.589844 176.703125 216.246094 175.761719 215.859375 C 174.824219 215.46875 173.902344 215.035156 173.007812 214.554688 C 172.109375 214.078125 171.238281 213.554688 170.390625 212.992188 C 169.542969 212.425781 168.726562 211.820312 167.941406 211.175781 C 167.152344 210.53125 166.402344 209.847656 165.679688 209.128906 C 164.960938 208.410156 164.277344 207.660156 163.632812 206.871094 C 162.988281 206.085938 162.382812 205.269531 161.816406 204.425781 C 161.25 203.582031 160.726562 202.710938 160.25 201.8125 C 159.769531 200.917969 159.335938 200 158.945312 199.058594 C 158.554688 198.121094 158.210938 197.164062 157.917969 196.191406 C 157.621094 195.21875 157.375 194.234375 157.175781 193.234375 C 156.976562 192.238281 156.828125 191.234375 156.730469 190.222656 C 156.628906 189.210938 156.578125 188.195312 156.578125 187.179688 C 156.578125 186.164062 156.628906 185.148438 156.730469 184.136719 C 156.828125 183.125 156.976562 182.121094 157.175781 181.125 C 157.375 180.128906 157.621094 179.140625 157.917969 178.167969 C 158.210938 177.195312 158.554688 176.242188 158.945312 175.300781 C 159.335938 174.363281 159.769531 173.445312 160.25 172.546875 C 160.726562 171.652344 161.25 170.78125 161.816406 169.933594 C 162.382812 169.089844 162.988281 168.273438 163.632812 167.488281 C 164.277344 166.703125 164.960938 165.949219 165.679688 165.230469 C 166.402344 164.511719 167.152344 163.828125 167.941406 163.183594 C 168.726562 162.539062 169.542969 161.933594 170.390625 161.371094 C 171.238281 160.804688 172.109375 160.285156 173.007812 159.804688 C 173.902344 159.324219 174.824219 158.890625 175.761719 158.5 C 176.703125 158.113281 177.660156 157.769531 178.632812 157.476562 C 179.609375 157.179688 180.59375 156.933594 181.59375 156.734375 C 182.589844 156.535156 183.597656 156.386719 184.609375 156.289062 C 185.621094 156.1875 186.636719 156.136719 187.65625 156.136719 C 188.671875 156.136719 189.6875 156.1875 190.699219 156.289062 C 191.714844 156.386719 192.71875 156.535156 193.71875 156.734375 C 194.714844 156.933594 195.703125 157.179688 196.675781 157.476562 C 197.648438 157.769531 198.605469 158.113281 199.546875 158.5 C 200.488281 158.890625 201.40625 159.324219 202.304688 159.804688 C 203.203125 160.285156 204.074219 160.804688 204.917969 161.371094 C 205.765625 161.933594 206.582031 162.539062 207.367188 163.183594 C 208.15625 163.828125 208.910156 164.511719 209.628906 165.230469 C 210.347656 165.949219 211.03125 166.703125 211.675781 167.488281 C 212.320312 168.273438 212.925781 169.089844 213.492188 169.933594 C 214.058594 170.78125 214.582031 171.652344 215.0625 172.546875 C 215.539062 173.445312 215.976562 174.363281 216.363281 175.300781 C 216.753906 176.242188 217.097656 177.195312 217.390625 178.167969 C 217.6875 179.140625 217.933594 180.128906 218.132812 181.125 C 218.332031 182.121094 218.480469 183.125 218.582031 184.136719 C 218.679688 185.148438 218.730469 186.164062 218.730469 187.179688 Z M 218.730469 187.179688 " fill-opacity="1" fill-rule="nonzero"/><g clip-path="url(#8b566bec47)"><path stroke-linecap="butt" transform="matrix(0.61944, 0, 0, 0.618765, 20.69709, 40.143026)" fill="none" stroke-linejoin="miter" d="M 269.532403 135.630367 C 336.887843 135.630367 399.456955 145.29553 446.639186 161.538812 C 503.48236 181.109032 538.437065 210.767384 538.437065 237.629088 C 538.437065 265.620815 501.395041 297.135182 440.352005 317.355637 C 394.203975 332.645661 333.469938 340.631573 269.532403 340.631573 C 203.9742 340.631573 141.90327 333.138073 95.231834 317.1915 C 36.187831 297.008922 0.621434 265.084212 0.621434 237.629088 C 0.621434 210.988338 33.993309 181.55094 90.035608 162.012285 C 137.388104 145.503858 201.508516 135.630367 269.526097 135.630367 Z M 269.532403 135.630367 " stroke="#00d8ff" stroke-width="24" stroke-opacity="1" stroke-miterlimit="4"/></g><g clip-path="url(#fac1096dc3)"><path stroke-linecap="butt" transform="matrix(0.61944, 0, 0, 0.618765, 20.69709, 40.143026)" fill="none" stroke-linejoin="miter" d="M 180.742532 186.916968 C 214.391875 128.572462 254.0194 79.198692 291.660503 46.44067 C 337.007659 6.978269 380.160293 -8.482204 403.429797 4.939178 C 427.676747 18.922416 436.473755 66.749507 423.495803 129.734049 C 413.696126 177.352812 390.262663 233.948625 358.322273 289.338659 C 325.568396 346.12386 288.072333 396.154179 250.942024 428.609179 C 203.961588 469.675075 158.538759 484.535816 134.75846 470.817723 C 111.678139 457.5226 102.855907 413.899949 113.929416 355.587008 C 123.281361 306.320559 146.758966 245.848581 180.72992 186.929594 Z M 180.742532 186.916968 " stroke="#00d8ff" stroke-width="24" stroke-opacity="1" stroke-miterlimit="4"/><path stroke-linecap="butt" transform="matrix(0.61944, 0, 0, 0.618765, 20.69709, 40.143026)" fill="none" stroke-linejoin="miter" d="M 180.818206 289.477544 C 147.080577 231.202481 124.101154 172.201425 114.509577 123.231686 C 102.963111 64.230631 111.129509 19.118118 134.373788 5.658858 C 158.595514 -8.362258 204.428239 7.906276 252.512242 50.60092 C 288.866901 82.879156 326.199006 131.438552 358.233988 186.77177 C 391.07615 243.500154 415.695159 300.979783 425.267817 349.34979 C 437.388139 410.560386 427.582155 457.326898 403.814469 471.089181 C 380.759372 484.441121 338.565266 470.306372 293.577557 431.588903 C 255.564394 398.881384 214.896363 348.339714 180.818206 289.471231 Z M 180.818206 289.477544 " stroke="#00d8ff" stroke-width="24" stroke-opacity="1" stroke-miterlimit="4"/></g></svg>