<svg xmlns="http://www.w3.org/2000/svg" xmlns:xlink="http://www.w3.org/1999/xlink" width="500" zoomAndPan="magnify" viewBox="0 0 375 374.999991" height="500" preserveAspectRatio="xMidYMid meet" version="1.0"><path fill="#e5b045" d="M 366.070312 0 L 8.929688 0 C 3.992188 0 0 4 0 8.929688 L 0 366.070312 C 0 371 3.992188 375 8.929688 375 L 366.070312 375 C 371.007812 375 375 371 375 366.070312 L 375 8.929688 C 375 4 371.007812 0 366.070312 0 Z M 223.214844 200.402344 L 178.570312 200.402344 L 178.570312 339.285156 L 142.855469 339.285156 L 142.855469 200.402344 L 98.214844 200.402344 L 98.214844 169.644531 L 223.214844 169.644531 Z M 233.222656 331.355469 L 233.222656 294.230469 C 233.222656 294.230469 253.5 309.519531 277.832031 309.519531 C 302.160156 309.519531 301.222656 293.605469 301.222656 291.429688 C 301.222656 268.339844 232.285156 268.339844 232.285156 217.1875 C 232.285156 147.625 332.730469 175.070312 332.730469 175.070312 L 331.480469 208.144531 C 331.480469 208.144531 314.632812 196.910156 295.605469 196.910156 C 276.582031 196.910156 269.714844 205.957031 269.714844 215.625 C 269.714844 240.582031 339.277344 238.089844 339.277344 288.3125 C 339.285156 365.667969 233.222656 331.355469 233.222656 331.355469 Z M 233.222656 331.355469 " fill-opacity="1" fill-rule="nonzero"/></svg>