<svg xmlns="http://www.w3.org/2000/svg" xmlns:xlink="http://www.w3.org/1999/xlink" width="500" zoomAndPan="magnify" viewBox="0 0 375 374.999991" height="500" preserveAspectRatio="xMidYMid meet" version="1.0"><defs><clipPath id="26c7f3685a"><path d="M 18.046875 0 L 357.046875 0 L 357.046875 375 L 18.046875 375 Z M 18.046875 0 " clip-rule="nonzero"/></clipPath></defs><g clip-path="url(#26c7f3685a)"><path fill="#b41ce1" d="M 276.65625 0.980469 L 103.523438 0.980469 C 102.125 0.984375 100.726562 1.019531 99.332031 1.089844 C 97.933594 1.160156 96.539062 1.265625 95.148438 1.402344 C 93.757812 1.542969 92.371094 1.714844 90.988281 1.921875 C 89.605469 2.128906 88.226562 2.367188 86.855469 2.640625 C 85.484375 2.917969 84.121094 3.222656 82.765625 3.566406 C 81.410156 3.90625 80.0625 4.28125 78.722656 4.6875 C 77.386719 5.09375 76.058594 5.535156 74.742188 6.003906 C 73.425781 6.476562 72.125 6.980469 70.832031 7.515625 C 69.539062 8.054688 68.261719 8.621094 67 9.21875 C 65.734375 9.816406 64.488281 10.445312 63.253906 11.105469 C 62.019531 11.765625 60.804688 12.457031 59.605469 13.175781 C 58.40625 13.894531 57.226562 14.640625 56.0625 15.417969 C 54.902344 16.195312 53.757812 17 52.636719 17.835938 C 51.511719 18.667969 50.410156 19.527344 49.332031 20.414062 C 48.25 21.300781 47.191406 22.214844 46.15625 23.152344 C 45.117188 24.09375 44.105469 25.054688 43.117188 26.042969 C 42.128906 27.03125 41.164062 28.046875 40.226562 29.082031 C 39.285156 30.117188 38.375 31.175781 37.484375 32.253906 C 36.597656 33.335938 35.738281 34.4375 34.90625 35.558594 C 34.070312 36.683594 33.265625 37.824219 32.488281 38.988281 C 31.710938 40.148438 30.964844 41.328125 30.246094 42.527344 C 29.523438 43.726562 28.835938 44.941406 28.175781 46.175781 C 27.515625 47.40625 26.886719 48.65625 26.289062 49.917969 C 25.6875 51.183594 25.121094 52.460938 24.585938 53.75 C 24.050781 55.042969 23.546875 56.34375 23.074219 57.660156 C 22.601562 58.976562 22.160156 60.304688 21.753906 61.640625 C 21.347656 62.980469 20.972656 64.324219 20.632812 65.679688 C 20.292969 67.035156 19.984375 68.398438 19.710938 69.769531 C 19.433594 71.140625 19.195312 72.519531 18.988281 73.902344 C 18.78125 75.285156 18.609375 76.671875 18.46875 78.0625 C 18.332031 79.453125 18.226562 80.847656 18.15625 82.242188 C 18.085938 83.636719 18.050781 85.035156 18.046875 86.433594 L 18.046875 288.566406 C 18.050781 289.964844 18.085938 291.363281 18.15625 292.757812 C 18.226562 294.152344 18.332031 295.546875 18.46875 296.9375 C 18.609375 298.328125 18.78125 299.714844 18.988281 301.097656 C 19.195312 302.480469 19.433594 303.859375 19.710938 305.230469 C 19.984375 306.601562 20.292969 307.964844 20.632812 309.320312 C 20.972656 310.675781 21.347656 312.019531 21.753906 313.359375 C 22.160156 314.695312 22.601562 316.023438 23.074219 317.339844 C 23.546875 318.65625 24.050781 319.957031 24.585938 321.25 C 25.121094 322.539062 25.6875 323.816406 26.289062 325.082031 C 26.886719 326.34375 27.515625 327.59375 28.175781 328.824219 C 28.835938 330.058594 29.523438 331.273438 30.246094 332.472656 C 30.964844 333.671875 31.710938 334.851562 32.488281 336.011719 C 33.265625 337.175781 34.070312 338.316406 34.90625 339.441406 C 35.738281 340.5625 36.597656 341.664062 37.484375 342.746094 C 38.375 343.824219 39.285156 344.882812 40.226562 345.917969 C 41.164062 346.953125 42.128906 347.96875 43.117188 348.957031 C 44.105469 349.945312 45.117188 350.90625 46.15625 351.847656 C 47.191406 352.785156 48.25 353.699219 49.332031 354.585938 C 50.410156 355.472656 51.511719 356.332031 52.636719 357.164062 C 53.757812 358 54.902344 358.804688 56.0625 359.582031 C 57.226562 360.359375 58.40625 361.105469 59.605469 361.824219 C 60.804688 362.542969 62.019531 363.234375 63.253906 363.894531 C 64.488281 364.554688 65.734375 365.183594 67 365.78125 C 68.261719 366.378906 69.539062 366.945312 70.832031 367.484375 C 72.125 368.019531 73.425781 368.523438 74.742188 368.996094 C 76.058594 369.464844 77.386719 369.90625 78.722656 370.3125 C 80.0625 370.71875 81.410156 371.09375 82.765625 371.433594 C 84.121094 371.777344 85.484375 372.082031 86.855469 372.359375 C 88.226562 372.632812 89.605469 372.871094 90.988281 373.078125 C 92.371094 373.285156 93.757812 373.457031 95.148438 373.597656 C 96.539062 373.734375 97.933594 373.839844 99.332031 373.910156 C 100.726562 373.980469 102.125 374.015625 103.523438 374.019531 L 271.570312 374.019531 C 272.96875 374.015625 274.367188 373.980469 275.761719 373.910156 C 277.160156 373.839844 278.554688 373.734375 279.945312 373.597656 C 281.335938 373.457031 282.722656 373.285156 284.105469 373.078125 C 285.488281 372.871094 286.867188 372.632812 288.238281 372.359375 C 289.609375 372.082031 290.972656 371.777344 292.328125 371.433594 C 293.683594 371.09375 295.03125 370.71875 296.371094 370.3125 C 297.707031 369.90625 299.035156 369.464844 300.351562 368.996094 C 301.667969 368.523438 302.96875 368.019531 304.261719 367.484375 C 305.554688 366.945312 306.832031 366.378906 308.09375 365.78125 C 309.359375 365.183594 310.605469 364.554688 311.839844 363.894531 C 313.074219 363.234375 314.289062 362.542969 315.488281 361.824219 C 316.6875 361.105469 317.867188 360.359375 319.03125 359.582031 C 320.191406 358.804688 321.335938 358 322.457031 357.164062 C 323.582031 356.332031 324.683594 355.472656 325.765625 354.585938 C 326.84375 353.699219 327.902344 352.785156 328.9375 351.847656 C 329.976562 350.90625 330.988281 349.945312 331.976562 348.957031 C 332.964844 347.96875 333.929688 346.953125 334.867188 345.917969 C 335.808594 344.882812 336.71875 343.824219 337.609375 342.746094 C 338.496094 341.664062 339.355469 340.5625 340.1875 339.441406 C 341.023438 338.316406 341.828125 337.175781 342.605469 336.011719 C 343.382812 334.851562 344.128906 333.671875 344.847656 332.472656 C 345.570312 331.273438 346.257812 330.058594 346.917969 328.824219 C 347.578125 327.59375 348.207031 326.34375 348.804688 325.082031 C 349.40625 323.816406 349.972656 322.539062 350.507812 321.25 C 351.042969 319.957031 351.546875 318.65625 352.019531 317.339844 C 352.492188 316.023438 352.933594 314.695312 353.339844 313.359375 C 353.746094 312.019531 354.121094 310.675781 354.460938 309.320312 C 354.800781 307.964844 355.109375 306.601562 355.382812 305.230469 C 355.660156 303.859375 355.898438 302.480469 356.105469 301.097656 C 356.3125 299.714844 356.484375 298.328125 356.625 296.9375 C 356.761719 295.546875 356.867188 294.152344 356.9375 292.757812 C 357.007812 291.363281 357.042969 289.964844 357.046875 288.566406 L 357.046875 81.472656 Z M 266.605469 25.1875 L 332.832031 91.394531 L 332.832031 117.902344 L 275.082031 117.902344 C 273.890625 117.902344 272.707031 117.84375 271.519531 117.726562 C 270.335938 117.613281 269.164062 117.4375 267.996094 117.207031 C 266.828125 116.972656 265.675781 116.683594 264.539062 116.339844 C 263.398438 115.996094 262.28125 115.59375 261.183594 115.140625 C 260.082031 114.683594 259.007812 114.175781 257.960938 113.617188 C 256.910156 113.054688 255.890625 112.445312 254.902344 111.785156 C 253.914062 111.121094 252.957031 110.414062 252.039062 109.660156 C 251.121094 108.90625 250.238281 108.109375 249.398438 107.269531 C 248.558594 106.425781 247.757812 105.546875 247.003906 104.628906 C 246.25 103.707031 245.542969 102.753906 244.882812 101.765625 C 244.21875 100.777344 243.609375 99.757812 243.050781 98.707031 C 242.488281 97.660156 241.980469 96.585938 241.523438 95.488281 C 241.070312 94.390625 240.667969 93.269531 240.324219 92.132812 C 239.980469 90.996094 239.691406 89.84375 239.457031 88.675781 C 239.226562 87.507812 239.050781 86.335938 238.933594 85.152344 C 238.820312 83.96875 238.761719 82.78125 238.761719 81.59375 L 238.761719 25.1875 Z M 332.832031 288.566406 C 332.828125 290.570312 332.726562 292.570312 332.527344 294.566406 C 332.328125 296.5625 332.03125 298.539062 331.636719 300.507812 C 331.242188 302.472656 330.753906 304.414062 330.167969 306.332031 C 329.582031 308.25 328.90625 310.132812 328.136719 311.984375 C 327.367188 313.835938 326.511719 315.644531 325.5625 317.414062 C 324.617188 319.179688 323.585938 320.898438 322.472656 322.5625 C 321.355469 324.230469 320.164062 325.839844 318.890625 327.386719 C 317.617188 328.9375 316.273438 330.421875 314.855469 331.839844 C 313.4375 333.253906 311.953125 334.601562 310.402344 335.871094 C 308.851562 337.144531 307.246094 338.339844 305.578125 339.453125 C 303.910156 340.566406 302.191406 341.597656 300.425781 342.542969 C 298.65625 343.492188 296.847656 344.347656 294.996094 345.117188 C 293.144531 345.886719 291.257812 346.5625 289.339844 347.148438 C 287.421875 347.730469 285.480469 348.222656 283.515625 348.613281 C 281.546875 349.007812 279.566406 349.304688 277.570312 349.507812 C 275.574219 349.707031 273.574219 349.808594 271.570312 349.8125 L 103.523438 349.8125 C 101.519531 349.808594 99.519531 349.707031 97.523438 349.507812 C 95.527344 349.304688 93.546875 349.007812 91.578125 348.613281 C 89.613281 348.222656 87.671875 347.730469 85.753906 347.148438 C 83.835938 346.5625 81.949219 345.886719 80.097656 345.117188 C 78.246094 344.347656 76.4375 343.492188 74.667969 342.542969 C 72.902344 341.597656 71.183594 340.566406 69.515625 339.453125 C 67.851562 338.339844 66.242188 337.144531 64.691406 335.871094 C 63.140625 334.601562 61.65625 333.253906 60.238281 331.839844 C 58.820312 330.421875 57.476562 328.9375 56.203125 327.386719 C 54.929688 325.839844 53.738281 324.230469 52.621094 322.5625 C 51.507812 320.898438 50.476562 319.179688 49.53125 317.414062 C 48.582031 315.644531 47.726562 313.835938 46.957031 311.984375 C 46.1875 310.132812 45.511719 308.25 44.925781 306.332031 C 44.339844 304.414062 43.851562 302.472656 43.457031 300.507812 C 43.0625 298.539062 42.765625 296.5625 42.566406 294.566406 C 42.367188 292.570312 42.265625 290.570312 42.261719 288.566406 L 42.261719 86.433594 C 42.265625 84.429688 42.367188 82.429688 42.566406 80.433594 C 42.765625 78.4375 43.0625 76.460938 43.457031 74.492188 C 43.851562 72.527344 44.339844 70.585938 44.925781 68.667969 C 45.511719 66.75 46.1875 64.867188 46.957031 63.015625 C 47.726562 61.164062 48.582031 59.355469 49.53125 57.585938 C 50.476562 55.820312 51.507812 54.101562 52.621094 52.4375 C 53.738281 50.769531 54.929688 49.160156 56.203125 47.613281 C 57.476562 46.0625 58.820312 44.578125 60.238281 43.160156 C 61.65625 41.746094 63.140625 40.398438 64.691406 39.128906 C 66.242188 37.855469 67.847656 36.660156 69.515625 35.546875 C 71.183594 34.433594 72.902344 33.402344 74.667969 32.457031 C 76.4375 31.507812 78.246094 30.652344 80.097656 29.882812 C 81.949219 29.113281 83.835938 28.4375 85.753906 27.851562 C 87.671875 27.269531 89.613281 26.777344 91.578125 26.386719 C 93.546875 25.992188 95.527344 25.695312 97.523438 25.492188 C 99.519531 25.292969 101.519531 25.191406 103.523438 25.1875 L 214.546875 25.1875 L 214.546875 81.59375 C 214.546875 83.574219 214.644531 85.550781 214.835938 87.523438 C 215.03125 89.496094 215.320312 91.453125 215.710938 93.398438 C 216.097656 95.34375 216.578125 97.261719 217.152344 99.160156 C 217.726562 101.054688 218.394531 102.921875 219.152344 104.75 C 219.914062 106.582031 220.757812 108.371094 221.695312 110.121094 C 222.628906 111.867188 223.644531 113.566406 224.746094 115.214844 C 225.847656 116.863281 227.027344 118.453125 228.285156 119.984375 C 229.542969 121.515625 230.875 122.984375 232.277344 124.386719 C 233.679688 125.785156 235.144531 127.117188 236.679688 128.375 C 238.210938 129.632812 239.800781 130.808594 241.449219 131.910156 C 243.097656 133.011719 244.796875 134.03125 246.546875 134.964844 C 248.292969 135.898438 250.082031 136.746094 251.914062 137.503906 C 253.746094 138.261719 255.613281 138.929688 257.507812 139.503906 C 259.40625 140.082031 261.328125 140.5625 263.273438 140.949219 C 265.214844 141.335938 267.175781 141.625 269.148438 141.820312 C 271.121094 142.011719 273.097656 142.109375 275.082031 142.109375 L 332.832031 142.109375 Z M 180.402344 234.824219 C 180.828125 235.535156 181.039062 236.300781 181.039062 237.125 C 181.039062 237.949219 180.828125 238.71875 180.402344 239.425781 C 180.007812 240.160156 179.453125 240.746094 178.734375 241.179688 C 178.019531 241.613281 177.246094 241.835938 176.410156 241.847656 L 167.085938 241.847656 C 166.332031 241.824219 165.625 241.628906 164.960938 241.265625 C 164.300781 240.902344 163.757812 240.410156 163.332031 239.789062 L 153.40625 224.417969 L 144.324219 239.546875 C 143.941406 240.257812 143.402344 240.824219 142.707031 241.234375 C 142.011719 241.648438 141.257812 241.851562 140.449219 241.847656 L 131.492188 241.847656 C 130.671875 241.828125 129.917969 241.601562 129.222656 241.167969 C 128.527344 240.734375 127.992188 240.152344 127.617188 239.425781 C 127.394531 239.082031 127.226562 238.714844 127.109375 238.324219 C 126.996094 237.933594 126.9375 237.535156 126.9375 237.125 C 126.9375 236.71875 126.996094 236.316406 127.109375 235.925781 C 127.226562 235.535156 127.394531 235.167969 127.617188 234.824219 L 143.597656 209.648438 L 128.34375 186.046875 C 127.90625 185.339844 127.675781 184.574219 127.65625 183.742188 C 127.632812 182.910156 127.824219 182.132812 128.226562 181.40625 C 128.628906 180.675781 129.1875 180.101562 129.898438 179.675781 C 130.613281 179.25 131.386719 179.035156 132.21875 179.027344 L 141.296875 179.027344 C 142.070312 179.042969 142.796875 179.230469 143.480469 179.59375 C 144.164062 179.953125 144.726562 180.453125 145.171875 181.085938 L 154.496094 195.488281 L 162.96875 181.328125 C 163.351562 180.613281 163.890625 180.050781 164.585938 179.636719 C 165.28125 179.226562 166.035156 179.019531 166.84375 179.027344 L 175.441406 179.027344 C 176.269531 179.0625 177.039062 179.292969 177.75 179.722656 C 178.457031 180.15625 179.019531 180.730469 179.433594 181.449219 C 179.859375 182.15625 180.070312 182.921875 180.070312 183.746094 C 180.070312 184.574219 179.859375 185.339844 179.433594 186.046875 L 164.058594 210.253906 Z M 219.871094 175.394531 L 212.972656 175.394531 C 212.675781 175.402344 212.382812 175.441406 212.089844 175.503906 C 211.800781 175.570312 211.519531 175.660156 211.25 175.78125 C 210.976562 175.898438 210.71875 176.042969 210.472656 176.210938 C 210.230469 176.382812 210.003906 176.574219 209.796875 176.785156 C 209.589844 177 209.40625 177.230469 209.242188 177.476562 C 209.078125 177.726562 208.941406 177.988281 208.832031 178.261719 C 208.71875 178.539062 208.632812 178.820312 208.578125 179.113281 C 208.519531 179.40625 208.492188 179.699219 208.492188 179.996094 L 208.492188 202.023438 C 207.070312 201.503906 205.605469 201.132812 204.105469 200.921875 C 202.605469 200.707031 201.097656 200.652344 199.585938 200.757812 C 198.074219 200.859375 196.585938 201.121094 195.128906 201.539062 C 193.671875 201.957031 192.273438 202.523438 190.9375 203.234375 C 187.738281 204.9375 185.234375 207.355469 183.429688 210.496094 C 182.457031 212.164062 181.730469 213.933594 181.257812 215.808594 C 180.785156 217.679688 180.582031 219.582031 180.644531 221.511719 C 180.597656 225.351562 181.445312 228.984375 183.1875 232.40625 C 183.597656 233.179688 184.0625 233.921875 184.574219 234.632812 C 185.085938 235.34375 185.644531 236.019531 186.25 236.652344 C 186.855469 237.285156 187.503906 237.875 188.1875 238.421875 C 188.875 238.96875 189.597656 239.464844 190.351562 239.910156 C 191.105469 240.355469 191.886719 240.75 192.695312 241.089844 C 193.507812 241.425781 194.335938 241.710938 195.183594 241.933594 C 196.03125 242.160156 196.890625 242.324219 197.757812 242.433594 C 198.628906 242.539062 199.503906 242.585938 200.378906 242.574219 C 203.679688 242.582031 206.828125 241.894531 209.824219 240.515625 C 210.699219 241.367188 211.75 241.808594 212.972656 241.847656 L 219.871094 241.847656 C 220.175781 241.847656 220.472656 241.816406 220.769531 241.757812 C 221.066406 241.699219 221.355469 241.613281 221.632812 241.496094 C 221.914062 241.378906 222.179688 241.238281 222.429688 241.070312 C 222.679688 240.902344 222.914062 240.710938 223.125 240.5 C 223.339844 240.285156 223.53125 240.054688 223.699219 239.800781 C 223.867188 239.550781 224.007812 239.285156 224.125 239.007812 C 224.238281 238.726562 224.328125 238.441406 224.386719 238.144531 C 224.445312 237.847656 224.472656 237.546875 224.472656 237.246094 L 224.472656 179.875 C 224.464844 179.578125 224.429688 179.285156 224.363281 178.996094 C 224.300781 178.703125 224.207031 178.421875 224.089844 178.152344 C 223.96875 177.878906 223.824219 177.621094 223.65625 177.378906 C 223.488281 177.132812 223.296875 176.90625 223.085938 176.699219 C 222.871094 176.492188 222.640625 176.308594 222.390625 176.144531 C 222.144531 175.984375 221.882812 175.847656 221.605469 175.734375 C 221.332031 175.621094 221.046875 175.539062 220.757812 175.480469 C 220.464844 175.425781 220.171875 175.394531 219.871094 175.394531 Z M 207.765625 225.628906 C 207.175781 226.277344 206.492188 226.800781 205.707031 227.199219 C 204.835938 227.652344 203.90625 227.878906 202.921875 227.878906 C 201.941406 227.878906 201.011719 227.652344 200.136719 227.199219 C 199.191406 226.644531 198.464844 225.878906 197.960938 224.902344 C 197.339844 223.941406 197.058594 222.894531 197.113281 221.753906 C 197.082031 220.640625 197.324219 219.59375 197.839844 218.605469 C 198.402344 217.742188 199.132812 217.054688 200.03125 216.539062 C 200.925781 216.027344 201.890625 215.75 202.921875 215.703125 C 203.933594 215.703125 204.902344 215.902344 205.828125 216.308594 C 206.59375 216.683594 207.277344 217.164062 207.886719 217.757812 C 208.28125 218.285156 208.605469 218.847656 208.855469 219.453125 L 208.855469 223.449219 C 208.527344 224.242188 208.042969 224.929688 207.402344 225.507812 Z M 242.148438 227.441406 C 242.996094 228.222656 243.652344 229.136719 244.117188 230.1875 C 244.578125 231.242188 244.8125 232.34375 244.8125 233.496094 C 244.800781 234.042969 244.734375 234.582031 244.617188 235.117188 C 244.5 235.652344 244.335938 236.171875 244.121094 236.675781 C 243.90625 237.175781 243.644531 237.65625 243.339844 238.109375 C 243.035156 238.566406 242.691406 238.988281 242.308594 239.378906 C 241.921875 239.765625 241.507812 240.117188 241.054688 240.429688 C 240.605469 240.738281 240.128906 241.007812 239.628906 241.226562 C 239.128906 241.449219 238.613281 241.621094 238.078125 241.746094 C 237.546875 241.871094 237.007812 241.945312 236.460938 241.96875 C 235.398438 241.964844 234.375 241.765625 233.390625 241.367188 C 232.410156 240.96875 231.535156 240.402344 230.769531 239.667969 C 229.871094 238.894531 229.175781 237.96875 228.691406 236.890625 C 228.203125 235.8125 227.96875 234.679688 227.984375 233.496094 C 227.964844 232.351562 228.171875 231.253906 228.617188 230.199219 C 229.058594 229.144531 229.695312 228.226562 230.527344 227.441406 C 231.300781 226.632812 232.203125 226.007812 233.234375 225.566406 C 234.265625 225.125 235.339844 224.902344 236.460938 224.902344 C 237.46875 224.953125 238.433594 225.1875 239.351562 225.605469 C 240.273438 226.023438 241.085938 226.597656 241.785156 227.320312 Z M 242.148438 227.441406 " fill-opacity="1" fill-rule="nonzero"/></g></svg>